TITLE ""
FILE "P1Q_t_0569-0577.mp3" MP3
  TRACK 01 AUDIO
    TITLE "P1Q_t_0569-0577_01"
    INDEX 01 00:00:00
  TRACK 02 AUDIO
    TITLE "P1Q_t_0569-0577_02"
    INDEX 01 00:01:29
  TRACK 03 AUDIO
    TITLE "P1Q_t_0569-0577_03"
    INDEX 01 00:01:51
  TRACK 04 AUDIO
    TITLE "P1Q_t_0569-0577_04"
    INDEX 01 00:03:48
  TRACK 05 AUDIO
    TITLE "P1Q_t_0569-0577_05"
    INDEX 01 00:03:69
  TRACK 06 AUDIO
    TITLE "P1Q_t_0569-0577_06"
    INDEX 01 00:08:55
  TRACK 07 AUDIO
    TITLE "P1Q_t_0569-0577_07"
    INDEX 01 00:09:25
  TRACK 08 AUDIO
    TITLE "P1Q_t_0569-0577_08"
    INDEX 01 00:10:32
  TRACK 09 AUDIO
    TITLE "P1Q_t_0569-0577_09"
    INDEX 01 00:10:52
  TRACK 10 AUDIO
    TITLE "P1Q_t_0569-0577_10"
    INDEX 01 00:11:55
  TRACK 11 AUDIO
    TITLE "P1Q_t_0569-0577_11"
    INDEX 01 00:11:75
  TRACK 12 AUDIO
    TITLE "P1Q_t_0569-0577_12"
    INDEX 01 00:16:68
  TRACK 13 AUDIO
    TITLE "P1Q_t_0569-0577_13"
    INDEX 01 00:17:42
  TRACK 14 AUDIO
    TITLE "P1Q_t_0569-0577_14"
    INDEX 01 00:18:63
  TRACK 15 AUDIO
    TITLE "P1Q_t_0569-0577_15"
    INDEX 01 00:19:33
  TRACK 16 AUDIO
    TITLE "P1Q_t_0569-0577_16"
    INDEX 01 00:23:29
  TRACK 17 AUDIO
    TITLE "P1Q_t_0569-0577_17"
    INDEX 01 00:23:51
  TRACK 18 AUDIO
    TITLE "P1Q_t_0569-0577_18"
    INDEX 01 00:27:50
  TRACK 19 AUDIO
    TITLE "P1Q_t_0569-0577_19"
    INDEX 01 00:28:20
  TRACK 20 AUDIO
    TITLE "P1Q_t_0569-0577_20"
    INDEX 01 00:29:26
  TRACK 21 AUDIO
    TITLE "P1Q_t_0569-0577_21"
    INDEX 01 00:29:49
  TRACK 22 AUDIO
    TITLE "P1Q_t_0569-0577_22"
    INDEX 01 00:31:13
  TRACK 23 AUDIO
    TITLE "P1Q_t_0569-0577_23"
    INDEX 01 00:31:32
  TRACK 24 AUDIO
    TITLE "P1Q_t_0569-0577_24"
    INDEX 01 00:37:23
  TRACK 25 AUDIO
    TITLE "P1Q_t_0569-0577_25"
    INDEX 01 00:37:70
  TRACK 26 AUDIO
    TITLE "P1Q_t_0569-0577_26"
    INDEX 01 00:39:03
  TRACK 27 AUDIO
    TITLE "P1Q_t_0569-0577_27"
    INDEX 01 00:39:24
  TRACK 28 AUDIO
    TITLE "P1Q_t_0569-0577_28"
    INDEX 01 00:42:03
  TRACK 29 AUDIO
    TITLE "P1Q_t_0569-0577_29"
    INDEX 01 00:42:22
  TRACK 30 AUDIO
    TITLE "P1Q_t_0569-0577_30"
    INDEX 01 00:46:06
  TRACK 31 AUDIO
    TITLE "P1Q_t_0569-0577_31"
    INDEX 01 00:46:50
  TRACK 32 AUDIO
    TITLE "P1Q_t_0569-0577_32"
    INDEX 01 00:47:61
  TRACK 33 AUDIO
    TITLE "P1Q_t_0569-0577_33"
    INDEX 01 00:48:07
  TRACK 34 AUDIO
    TITLE "P1Q_t_0569-0577_34"
    INDEX 01 00:49:46
  TRACK 35 AUDIO
    TITLE "P1Q_t_0569-0577_35"
    INDEX 01 00:49:70
  TRACK 36 AUDIO
    TITLE "P1Q_t_0569-0577_36"
    INDEX 01 00:54:08
  TRACK 37 AUDIO
    TITLE "P1Q_t_0569-0577_37"
    INDEX 01 00:54:55
  TRACK 38 AUDIO
    TITLE "P1Q_t_0569-0577_38"
    INDEX 01 00:55:70
  TRACK 39 AUDIO
    TITLE "P1Q_t_0569-0577_39"
    INDEX 01 00:56:15
  TRACK 40 AUDIO
    TITLE "P1Q_t_0569-0577_40"
    INDEX 01 00:58:59
  TRACK 41 AUDIO
    TITLE "P1Q_t_0569-0577_41"
    INDEX 01 00:59:05
  TRACK 42 AUDIO
    TITLE "P1Q_t_0569-0577_42"
    INDEX 01 01:04:01
  TRACK 43 AUDIO
    TITLE "P1Q_t_0569-0577_43"
    INDEX 01 01:04:46
  TRACK 44 AUDIO
    TITLE "P1Q_t_0569-0577_44"
    INDEX 01 01:05:59
  TRACK 45 AUDIO
    TITLE "P1Q_t_0569-0577_45"
    INDEX 01 01:06:07
  TRACK 46 AUDIO
    TITLE "P1Q_t_0569-0577_46"
    INDEX 01 01:08:24
  TRACK 47 AUDIO
    TITLE "P1Q_t_0569-0577_47"
    INDEX 01 01:08:45
  TRACK 48 AUDIO
    TITLE "P1Q_t_0569-0577_48"
    INDEX 01 01:13:19
  TRACK 49 AUDIO
    TITLE "P1Q_t_0569-0577_49"
    INDEX 01 01:13:68
  TRACK 50 AUDIO
    TITLE "P1Q_t_0569-0577_50"
    INDEX 01 01:15:22
  TRACK 51 AUDIO
    TITLE "P1Q_t_0569-0577_51"
    INDEX 01 01:15:43
  TRACK 52 AUDIO
    TITLE "P1Q_t_0569-0577_52"
    INDEX 01 01:18:36
  TRACK 53 AUDIO
    TITLE "P1Q_t_0569-0577_53"
    INDEX 01 01:18:55
  TRACK 54 AUDIO
    TITLE "P1Q_t_0569-0577_54"
    INDEX 01 01:23:41
